<svg width="1440" height="1024" viewBox="0 0 1440 1024" fill="none" xmlns="http://www.w3.org/2000/svg">
<circle cx="232" cy="794" r="215" fill="#0ECAF3"/>
<circle cx="198" cy="193" r="88" fill="#D7B12B"/>
<circle cx="215.642" cy="214.916" r="9.5" transform="rotate(80.6587 215.642 214.916)" fill="#B89725"/>
<circle cx="245.368" cy="229.282" r="9.5" transform="rotate(80.6587 245.368 229.282)" fill="#B89725"/>
<circle cx="160.5" cy="149.5" r="9.5" fill="#B89725"/>
<g filter="url(#filter0_f)">
<path fill-rule="evenodd" clip-rule="evenodd" d="M276.336 164.674C278.112 162.336 278.749 160.405 278 159C276.331 155.871 274.61 152.644 272.833 149.353C280.865 151.239 286.7 154.957 289.491 160.57C299.203 180.104 268.371 215.185 220.624 238.925C172.878 262.665 126.298 266.074 116.586 246.54C113.752 240.84 114.37 233.816 117.854 226.136C120.89 229.904 124.199 234.016 127.798 238.604C127.806 239.708 128.042 240.381 128.226 240.752C128.599 241.502 129.828 243.164 134.158 244.539C138.539 245.929 144.977 246.611 153.393 245.995C170.158 244.768 192.093 238.592 214.836 227.284C237.58 215.976 255.743 202.214 266.84 189.588C272.411 183.249 275.754 177.705 277.289 173.373C278.807 169.091 278.223 167.108 277.85 166.358C277.662 165.979 277.254 165.366 276.336 164.674Z" fill="#83E057"/>
</g>
<circle cx="141.5" cy="176.5" r="9.5" fill="#B89725"/>
<circle cx="183.5" cy="180.5" r="13.5" fill="#A48722"/>
<ellipse cx="216.76" cy="256.943" rx="5.96627" ry="13.5" transform="rotate(65.9932 216.76 256.943)" fill="#A48722"/>
<circle cx="1152.3" cy="681.302" r="88" transform="rotate(65.8496 1152.3 681.302)" fill="#895FE2"/>
<circle cx="1139.52" cy="706.366" r="9.5" transform="rotate(146.508 1139.52 706.366)" fill="#B89725"/>
<circle cx="1138.58" cy="739.367" r="9.5" transform="rotate(146.508 1138.58 739.367)" fill="#B89725"/>
<circle cx="1176.65" cy="629.286" r="9.5" transform="rotate(65.8496 1176.65 629.286)" fill="#B89725"/>
<g filter="url(#filter1_f)">
<path fill-rule="evenodd" clip-rule="evenodd" d="M1210.2 741.192C1213.06 741.856 1215.08 741.647 1216.06 740.389C1218.23 737.586 1220.47 734.695 1222.75 731.727C1224.31 739.828 1223.3 746.673 1219.32 751.516C1205.47 768.371 1160.85 754.589 1119.65 720.735C1078.46 686.88 1056.29 645.773 1070.14 628.918C1074.18 624 1080.84 621.691 1089.27 621.727C1087.08 626.039 1084.68 630.741 1081.97 635.902C1080.96 636.361 1080.45 636.852 1080.18 637.172C1079.65 637.819 1078.64 639.62 1079.15 644.133C1079.68 648.7 1081.69 654.853 1085.69 662.281C1093.67 677.076 1108.28 694.565 1127.91 710.691C1147.53 726.817 1167.52 737.76 1183.58 742.72C1191.64 745.211 1198.07 745.992 1202.65 745.621C1207.18 745.254 1208.75 743.91 1209.28 743.263C1209.55 742.935 1209.94 742.312 1210.2 741.192Z" fill="#83E057"/>
</g>
<circle cx="1144.24" cy="622.996" r="9.5" transform="rotate(65.8496 1144.24 622.996)" fill="#B89725"/>
<circle cx="1157.78" cy="662.956" r="13.5" transform="rotate(65.8496 1157.78 662.956)" fill="#A48722"/>
<ellipse cx="1101.63" cy="724.58" rx="5.96627" ry="13.5" transform="rotate(131.843 1101.63 724.58)" fill="#A48722"/>
<circle cx="363.114" cy="555.114" r="41.7021" transform="rotate(65.8496 363.114 555.114)" fill="#B3ADC0"/>
<circle cx="357.058" cy="566.992" r="4.50194" transform="rotate(146.508 357.058 566.992)" fill="#999999"/>
<circle cx="356.609" cy="582.631" r="4.50194" transform="rotate(146.508 356.609 582.631)" fill="#999999"/>
<circle cx="374.653" cy="530.465" r="4.50194" transform="rotate(65.8496 374.653 530.465)" fill="#999999"/>
<circle cx="359.294" cy="527.484" r="4.50194" transform="rotate(65.8496 359.294 527.484)" fill="#999999"/>
<circle cx="365.708" cy="546.42" r="6.39749" transform="rotate(65.8496 365.708 546.42)" fill="#9A9891"/>
<ellipse cx="339.102" cy="575.623" rx="2.82735" ry="6.39749" transform="rotate(131.843 339.102 575.623)" fill="#9A9891"/>
<path d="M239.463 808.904C107.098 835.825 124.336 765.09 149.501 726.358C164.897 708.572 200.511 673 219.802 673C243.915 673 215.535 687.315 219.802 694.194C223.215 699.697 243.977 700.206 253.932 699.772C260.795 709.439 250.778 684.155 260.609 687.315C277.456 692.732 292.328 684.527 301.973 684.155C303.482 677.27 304.8 662.2 298 657C289.5 650.5 288.786 644 278.5 650.5C268.214 657 268.391 660.5 264.5 653.5C260.609 646.5 265.363 634.5 253.932 642.5C242.5 650.5 244.427 653.5 239.463 653.5C234.5 653.5 225.603 658.5 219.802 650.5C214 642.5 196 631.5 187.5 642.5C179 653.5 175.5 667.5 165.5 657C155.5 646.5 127 666 126.5 646.5C126 627 122.5 625 132 614C141.5 603 133.502 598 149.501 599.5C165.5 601 170 610.5 175.5 599.5C181 588.5 186 583.4 187 584C199.463 591.478 204.5 596.5 208.5 590C217.541 584.8 232.909 583.5 239.463 583.5C242.06 581.333 248.59 578.3 253.932 583.5C260.609 590 261.351 596.5 268.214 590C273.705 584.8 280.026 584.5 282.5 585C298.667 589.167 337 602.4 361 622C357.5 622.5 350.3 624 349.5 626C348.5 628.5 351.465 631 347.233 631C343 631 336.103 629.5 336.103 632.5C336.103 635.5 339 642.5 341 642.5C343 642.5 354 644.5 354 638.5C357.435 631 360.5 629.5 363.5 631C366.5 632.5 372.5 635.5 375 635.5C377.5 635.5 384.5 643.5 386 645C387.5 646.5 398.5 657 400.5 660C402.5 663 416.5 682.5 417 685.5C417.5 688.5 416.5 695.5 414.5 696C412.5 696.5 409.5 696.228 409 698C408.5 699.772 400.5 696 399 696C397.5 696 397.5 696.389 394 694.194C390.5 692 386 689.845 386 687C386 684.155 385.5 681 382 680.5C378.5 680 370.5 675 369 671C367.5 667 370 667 365.5 662C361 657 360.869 660.5 357.435 657C354.687 654.2 347.667 648.833 344.5 646.5H343C359.167 666 393.7 704.8 402.5 704C413.5 703 426 724 410.5 728C395 732 383 753.322 375 749.411C367 745.5 347.233 733 347.233 728C347.233 723 338.207 717 336.103 712C334 707 321.819 705.349 325.16 699.772C327.832 695.31 315.391 697.913 308.836 699.772C307.785 695.93 304.941 689.435 301.973 694.194C298.264 700.144 325.16 714.087 325.16 720.223C325.16 726.358 313.103 726.358 336.103 739.186C359.104 752.014 347.233 752.2 357.435 757.22C365.596 761.235 379.879 753.687 386 749.411C383.589 788.268 382.091 772.093 380.064 775.253C348.717 824.149 357.435 808.904 364.298 837.349C369.788 860.105 358.3 872.115 351.87 875.276C363.37 902.605 343.841 887.732 347.233 902.605C353.168 928.634 303.272 959.496 301.973 943.693C300.675 927.89 295.481 920.267 275.077 896.656C254.674 873.045 268.956 870.628 268.214 860.775C267.621 852.892 262.897 847.203 260.609 845.344C241.318 832.701 238.474 815.783 239.463 808.904Z" fill="#3CC852"/>
<path d="M265.305 957.116C266.845 950.801 270.115 950.054 274.819 945.54C275.79 945.777 279.193 947.019 285.032 950.09C292.33 953.928 288.337 955.528 285.091 960.397C281.845 965.267 284.748 963.916 284.665 970.586C284.582 977.257 283.99 979.685 281.821 982.245C279.653 984.804 274.808 985.68 273.872 991.628C272.936 997.576 269.31 999.779 264.346 1001.14C259.382 1002.5 258.73 994.626 260.27 988.311C261.811 981.996 259.5 980.918 263.588 974.71C267.675 968.501 263.765 963.43 265.305 957.116Z" fill="#3CC852"/>
<path fill-rule="evenodd" clip-rule="evenodd" d="M393.108 159L396.813 170.401H408.801L399.102 177.448L402.807 188.849L393.108 181.802L383.41 188.849L387.114 177.448L377.416 170.401H389.404L393.108 159ZM333.813 187.401L330.108 176L326.404 187.401H314.416L324.114 194.448L320.41 205.849L330.108 198.802L339.807 205.849L336.102 194.448L345.801 187.401H333.813ZM379.813 231.401L376.108 220L372.404 231.401H360.416L370.114 238.448L366.41 249.849L376.108 242.802L385.807 249.849L382.102 238.448L391.801 231.401H379.813ZM488.405 181.528L486.608 176L484.812 181.528H479L483.702 184.944L481.906 190.472L486.608 187.056L491.311 190.472L489.515 184.944L494.217 181.528H488.405ZM588.608 237L590.405 242.528H596.217L591.515 245.944L593.311 251.472L588.608 248.056L583.906 251.472L585.702 245.944L581 242.528H586.812L588.608 237ZM189.405 360.528L187.608 355L185.812 360.528H180L184.702 363.944L182.906 369.472L187.608 366.056L192.311 369.472L190.515 363.944L195.217 360.528H189.405ZM714.608 160L716.405 165.528H722.217L717.515 168.944L719.311 174.472L714.608 171.056L709.906 174.472L711.702 168.944L707 165.528H712.812L714.608 160ZM700.405 382.528L698.608 377L696.812 382.528H691L695.702 385.944L693.906 391.472L698.608 388.056L703.311 391.472L701.515 385.944L706.217 382.528H700.405ZM297.608 495L299.405 500.528H305.217L300.515 503.944L302.311 509.472L297.608 506.056L292.906 509.472L294.702 503.944L290 500.528H295.812L297.608 495ZM870.405 640.528L868.608 635L866.812 640.528H861L865.702 643.944L863.906 649.472L868.608 646.056L873.311 649.472L871.515 643.944L876.217 640.528H870.405ZM467.608 753L469.405 758.528H475.217L470.515 761.944L472.311 767.472L467.608 764.056L462.906 767.472L464.702 761.944L460 758.528H465.812L467.608 753ZM900.405 398.528L898.608 393L896.812 398.528H891L895.702 401.944L893.906 407.472L898.608 404.056L903.311 407.472L901.515 401.944L906.217 398.528H900.405ZM497.608 511L499.405 516.528H505.217L500.515 519.944L502.311 525.472L497.608 522.056L492.906 525.472L494.702 519.944L490 516.528H495.812L497.608 511ZM1040.4 495.528L1038.61 490L1036.81 495.528H1031L1035.7 498.944L1033.91 504.472L1038.61 501.056L1043.31 504.472L1041.51 498.944L1046.22 495.528H1040.4ZM637.608 608L639.405 613.528H645.217L640.515 616.944L642.311 622.472L637.608 619.056L632.906 622.472L634.702 616.944L630 613.528H635.812L637.608 608ZM1201.4 173.528L1199.61 168L1197.81 173.528H1192L1196.7 176.944L1194.91 182.472L1199.61 179.056L1204.31 182.472L1202.51 176.944L1207.22 173.528H1201.4ZM1126.61 274L1128.4 279.528H1134.22L1129.51 282.944L1131.31 288.472L1126.61 285.056L1121.91 288.472L1123.7 282.944L1119 279.528H1124.81L1126.61 274ZM727.405 397.528L725.608 392L723.812 397.528H718L722.702 400.944L720.906 406.472L725.608 403.056L730.311 406.472L728.515 400.944L733.217 397.528H727.405ZM1167.61 377L1169.4 382.528H1175.22L1170.51 385.944L1172.31 391.472L1167.61 388.056L1162.91 391.472L1164.7 385.944L1160 382.528H1165.81L1167.61 377ZM768.405 500.528L766.608 495L764.812 500.528H759L763.702 503.944L761.906 509.472L766.608 506.056L771.311 509.472L769.515 503.944L774.217 500.528H768.405Z" fill="#FAFF0E"/>
<defs>
<filter id="filter0_f" x="110.798" y="145.353" width="184.48" height="117.87" filterUnits="userSpaceOnUse" color-interpolation-filters="sRGB">
<feFlood flood-opacity="0" result="BackgroundImageFix"/>
<feBlend mode="normal" in="SourceGraphic" in2="BackgroundImageFix" result="shape"/>
<feGaussianBlur stdDeviation="2" result="effect1_foregroundBlur"/>
</filter>
<filter id="filter1_f" x="1053.83" y="583.524" width="180.458" height="213.986" filterUnits="userSpaceOnUse" color-interpolation-filters="sRGB">
<feFlood flood-opacity="0" result="BackgroundImageFix"/>
<feBlend mode="normal" in="SourceGraphic" in2="BackgroundImageFix" result="shape"/>
<feGaussianBlur stdDeviation="2" result="effect1_foregroundBlur"/>
</filter>
</defs>
</svg>
