<svg width="1440" height="947" viewBox="0 0 1440 947" fill="none" xmlns="http://www.w3.org/2000/svg">
<path fill-rule="evenodd" clip-rule="evenodd" d="M1502.9 290.277C1502.9 322.523 1504.95 363.214 1507.2 407.957C1519.02 642.947 1536.46 989.723 1292.6 812.108C1009.58 605.96 711.451 586.381 718.825 850.151C719.029 857.447 728.546 862.635 735.748 861.444C744.646 859.971 755.676 860.222 767.301 862.553C788.969 866.896 805.947 877.109 809.936 887.231C810.647 889.033 812.193 890.61 814.092 890.989V890.989C816.342 891.437 818.695 891.906 820.433 891.102C822.194 890.287 823.305 888.415 824.395 886.579C825.694 884.389 826.963 882.252 829.265 882.026C832.548 881.703 835.124 884.493 837.552 887.121C838.232 887.858 838.901 888.582 839.57 889.222C840.798 890.395 841.648 891.869 842.498 893.343C843.35 894.819 844.201 896.295 845.433 897.47C846.621 898.602 848.085 899.324 849.555 900.048C850.786 900.655 852.02 901.264 853.098 902.116C853.539 902.466 853.988 902.811 854.437 903.157C856.935 905.082 859.463 907.029 860.979 909.769C862.878 913.199 864.842 917.403 863.623 921.13C862.694 923.969 860.025 925.667 857.391 927.342C856.434 927.951 855.482 928.557 854.619 929.213C853.524 930.047 852.27 930.649 851.021 931.247C849.316 932.066 847.621 932.879 846.356 934.272C845.109 935.645 844.443 937.462 843.782 939.263C842.969 941.48 842.165 943.672 840.301 944.984C837.119 947.224 832.668 947.322 828.847 946.598C825.054 945.88 821.131 944.05 818.86 940.922C817.716 939.348 817.696 937.255 817.675 935.178C817.653 932.935 817.631 930.71 816.196 929.176C814.795 927.679 812.549 927.532 810.315 927.386C807.997 927.235 805.692 927.084 804.358 925.426C802.102 922.623 803.002 917.962 804.561 914.717C805.315 913.148 807.075 912.262 808.799 911.394C810.809 910.382 812.769 909.396 813.026 907.383C813.352 904.839 811.646 902.414 809.978 900.044V900.044C809.308 899.093 807.863 899.041 807.016 899.837C799.105 907.275 779.869 909.947 758.652 905.694C745.956 903.149 734.87 898.589 727.064 893.213C721.159 889.146 708.804 887.869 701.649 888.332C681.909 889.609 648.031 871.913 604.387 849.115C490.762 789.762 310.944 695.832 142.087 812.108C-88.1492 970.65 -77.2631 613.819 -70.2708 384.623C-69.1955 349.376 -68.2123 317.148 -68.2123 290.277C-68.2123 -132.926 283.494 -476 717.346 -476C1151.2 -476 1502.9 -132.926 1502.9 290.277Z" fill="url(#paint0_linear)"/>
<defs>
<linearGradient id="paint0_linear" x1="-73" y1="221.604" x2="1513" y2="221.604" gradientUnits="userSpaceOnUse">
<stop stop-color="#FF4E50"/>
<stop offset="1" stop-color="#F9D423"/>
</linearGradient>
</defs>
</svg>
